<svg xmlns="http://www.w3.org/2000/svg" version="1.1" xmlns:xlink="http://www.w3.org/1999/xlink" width="1000" height="1000"><metadata><rdf:RDF xmlns:rdf="http://www.w3.org/1999/02/22-rdf-syntax-ns#" xmlns:dc="http://purl.org/dc/elements/1.1/"><rdf:Description><dc:creator>RealFaviconGenerator</dc:creator><dc:source>https://realfavicongenerator.net</dc:source></rdf:Description></rdf:RDF></metadata><style>
    #light-icon {
      display: inline;
    }
    #dark-icon {
      display: none;
    }

    @media (prefers-color-scheme: dark) {
      #light-icon {
        display: none;
      }
      #dark-icon {
        display: inline;
      }
    }
  </style><g id="light-icon"><svg xmlns="http://www.w3.org/2000/svg" version="1.1" xmlns:xlink="http://www.w3.org/1999/xlink" width="1000" height="1000"><g><g transform="matrix(2.5,0,0,2.5,0,0)"><svg xmlns="http://www.w3.org/2000/svg" width="400" height="400" viewBox="0 0 400 400" fill="none"><path d="M26 38C26 31.3726 31.3726 26 38 26H181.698C185.1 26 188.342 27.4439 190.618 29.9724L233.446 77.5595C235.722 80.088 238.964 81.5319 242.366 81.5319H287H362C368.627 81.5319 374 86.9045 374 93.5319V362C374 368.627 368.627 374 362 374H38C31.3726 374 26 368.627 26 362V38Z" stroke="#141413" stroke-width="27"></path><path d="M130.985 301.15C119.785 301.15 109.67 299.19 100.64 295.27C91.6796 291.28 84.2946 285.61 78.4846 278.26C72.7446 270.84 69.1046 262.02 67.5646 251.8L97.3846 247.39C99.4846 256.07 103.825 262.755 110.405 267.445C116.985 272.135 124.475 274.48 132.875 274.48C137.565 274.48 142.115 273.745 146.525 272.275C150.935 270.805 154.54 268.635 157.34 265.765C160.21 262.895 161.645 259.36 161.645 255.16C161.645 253.62 161.4 252.15 160.91 250.75C160.49 249.28 159.755 247.915 158.705 246.655C157.655 245.395 156.15 244.205 154.19 243.085C152.3 241.965 149.885 240.95 146.945 240.04L107.675 228.49C104.735 227.65 101.305 226.46 97.3846 224.92C93.5346 223.38 89.7896 221.175 86.1496 218.305C82.5096 215.435 79.4646 211.655 77.0146 206.965C74.6346 202.205 73.4446 196.22 73.4446 189.01C73.4446 178.86 75.9996 170.425 81.1096 163.705C86.2196 156.985 93.0446 151.98 101.585 148.69C110.125 145.4 119.575 143.79 129.935 143.86C140.365 144 149.675 145.785 157.865 149.215C166.055 152.645 172.915 157.65 178.445 164.23C183.975 170.74 187.965 178.72 190.415 188.17L159.545 193.42C158.425 188.52 156.36 184.39 153.35 181.03C150.34 177.67 146.735 175.115 142.535 173.365C138.405 171.615 134.065 170.67 129.515 170.53C125.035 170.39 120.8 171.02 116.81 172.42C112.89 173.75 109.67 175.71 107.15 178.3C104.7 180.89 103.475 183.97 103.475 187.54C103.475 190.83 104.49 193.525 106.52 195.625C108.55 197.655 111.105 199.3 114.185 200.56C117.265 201.82 120.415 202.87 123.635 203.71L149.885 210.85C153.805 211.9 158.145 213.3 162.905 215.05C167.665 216.73 172.215 219.11 176.555 222.19C180.965 225.2 184.57 229.19 187.37 234.16C190.24 239.13 191.675 245.43 191.675 253.06C191.675 261.18 189.96 268.285 186.53 274.375C183.17 280.395 178.62 285.4 172.88 289.39C167.14 293.31 160.63 296.25 153.35 298.21C146.14 300.17 138.685 301.15 130.985 301.15ZM218.953 298V146.8H282.793C284.263 146.8 286.223 146.87 288.673 147.01C291.193 147.08 293.433 147.29 295.393 147.64C304.423 149.04 311.808 152.015 317.548 156.565C323.358 161.115 327.628 166.855 330.358 173.785C333.088 180.645 334.453 188.31 334.453 196.78C334.453 205.25 333.053 212.95 330.253 219.88C327.523 226.74 323.253 232.445 317.443 236.995C311.703 241.545 304.353 244.52 295.393 245.92C293.433 246.2 291.193 246.41 288.673 246.55C286.153 246.69 284.193 246.76 282.793 246.76H247.513V298H218.953ZM247.513 220.09H281.533C283.003 220.09 284.613 220.02 286.363 219.88C288.113 219.74 289.723 219.46 291.193 219.04C295.043 217.99 298.018 216.24 300.118 213.79C302.218 211.27 303.653 208.505 304.423 205.495C305.263 202.415 305.683 199.51 305.683 196.78C305.683 194.05 305.263 191.18 304.423 188.17C303.653 185.09 302.218 182.325 300.118 179.875C298.018 177.355 295.043 175.57 291.193 174.52C289.723 174.1 288.113 173.82 286.363 173.68C284.613 173.54 283.003 173.47 281.533 173.47H247.513V220.09Z" fill="#141413"></path></svg></g></g></svg></g><g id="dark-icon"><svg xmlns="http://www.w3.org/2000/svg" version="1.1" xmlns:xlink="http://www.w3.org/1999/xlink" width="1000" height="1000"><g><g transform="matrix(2.5,0,0,2.5,0,0)"><svg xmlns="http://www.w3.org/2000/svg" width="400" height="400" viewBox="0 0 400 400" fill="none"><path d="M26 38C26 31.3726 31.3726 26 38 26H181.698C185.1 26 188.342 27.4439 190.618 29.9724L233.446 77.5595C235.722 80.088 238.964 81.5319 242.366 81.5319H287H362C368.627 81.5319 374 86.9045 374 93.5319V362C374 368.627 368.627 374 362 374H38C31.3726 374 26 368.627 26 362V38Z" stroke="#F5F4ED" stroke-width="27"></path><path d="M130.985 301.15C119.785 301.15 109.67 299.19 100.64 295.27C91.6796 291.28 84.2946 285.61 78.4846 278.26C72.7446 270.84 69.1046 262.02 67.5646 251.8L97.3846 247.39C99.4846 256.07 103.825 262.755 110.405 267.445C116.985 272.135 124.475 274.48 132.875 274.48C137.565 274.48 142.115 273.745 146.525 272.275C150.935 270.805 154.54 268.635 157.34 265.765C160.21 262.895 161.645 259.36 161.645 255.16C161.645 253.62 161.4 252.15 160.91 250.75C160.49 249.28 159.755 247.915 158.705 246.655C157.655 245.395 156.15 244.205 154.19 243.085C152.3 241.965 149.885 240.95 146.945 240.04L107.675 228.49C104.735 227.65 101.305 226.46 97.3846 224.92C93.5346 223.38 89.7896 221.175 86.1496 218.305C82.5096 215.435 79.4646 211.655 77.0146 206.965C74.6346 202.205 73.4446 196.22 73.4446 189.01C73.4446 178.86 75.9996 170.425 81.1096 163.705C86.2196 156.985 93.0446 151.98 101.585 148.69C110.125 145.4 119.575 143.79 129.935 143.86C140.365 144 149.675 145.785 157.865 149.215C166.055 152.645 172.915 157.65 178.445 164.23C183.975 170.74 187.965 178.72 190.415 188.17L159.545 193.42C158.425 188.52 156.36 184.39 153.35 181.03C150.34 177.67 146.735 175.115 142.535 173.365C138.405 171.615 134.065 170.67 129.515 170.53C125.035 170.39 120.8 171.02 116.81 172.42C112.89 173.75 109.67 175.71 107.15 178.3C104.7 180.89 103.475 183.97 103.475 187.54C103.475 190.83 104.49 193.525 106.52 195.625C108.55 197.655 111.105 199.3 114.185 200.56C117.265 201.82 120.415 202.87 123.635 203.71L149.885 210.85C153.805 211.9 158.145 213.3 162.905 215.05C167.665 216.73 172.215 219.11 176.555 222.19C180.965 225.2 184.57 229.19 187.37 234.16C190.24 239.13 191.675 245.43 191.675 253.06C191.675 261.18 189.96 268.285 186.53 274.375C183.17 280.395 178.62 285.4 172.88 289.39C167.14 293.31 160.63 296.25 153.35 298.21C146.14 300.17 138.685 301.15 130.985 301.15ZM218.953 298V146.8H282.793C284.263 146.8 286.223 146.87 288.673 147.01C291.193 147.08 293.433 147.29 295.393 147.64C304.423 149.04 311.808 152.015 317.548 156.565C323.358 161.115 327.628 166.855 330.358 173.785C333.088 180.645 334.453 188.31 334.453 196.78C334.453 205.25 333.053 212.95 330.253 219.88C327.523 226.74 323.253 232.445 317.443 236.995C311.703 241.545 304.353 244.52 295.393 245.92C293.433 246.2 291.193 246.41 288.673 246.55C286.153 246.69 284.193 246.76 282.793 246.76H247.513V298H218.953ZM247.513 220.09H281.533C283.003 220.09 284.613 220.02 286.363 219.88C288.113 219.74 289.723 219.46 291.193 219.04C295.043 217.99 298.018 216.24 300.118 213.79C302.218 211.27 303.653 208.505 304.423 205.495C305.263 202.415 305.683 199.51 305.683 196.78C305.683 194.05 305.263 191.18 304.423 188.17C303.653 185.09 302.218 182.325 300.118 179.875C298.018 177.355 295.043 175.57 291.193 174.52C289.723 174.1 288.113 173.82 286.363 173.68C284.613 173.54 283.003 173.47 281.533 173.47H247.513V220.09Z" fill="#F5F4ED"></path></svg></g></g></svg></g></svg>